<svg xmlns="http://www.w3.org/2000/svg" fill="none" viewBox="0 0 190 35">
  <defs/>
  <path fill="#000" d="M55 21v1h2v1a5 5 0 01-1 1 30 30 0 01-3 0h-1a4 4 0 010-1 24 24 0 010-1 3 3 0 01-1 2 4 4 0 01-1 0h-2-1a4 4 0 01-1-1 3 3 0 01-1-1 3 3 0 010-1v-2l1-1 3-1h3v-3l-2-1h-1l-1 3h-1a8 8 0 01-1 0v-1a18 18 0 010-1 8 8 0 010-1l2-1h5l2 1v3a43 43 0 010 5zm-5 1h1l1-1v-3h-2l-1 1a1 1 0 00-1 0v1l1 2h1zm14 7h-6v-1a9 9 0 011-1V14h-1v-1l1-1a14 14 0 012 0h2v2a5 5 0 011-2h5a3 3 0 011 1l1 2a10 10 0 010 5l-1 3a5 5 0 01-2 1 7 7 0 01-4 0 4 4 0 01-1 0v3h1v2zm1-15h-1l-1 2v6l1 1h1l2-1 1-4-1-3-2-1zm14 15h-7v-1a9 9 0 012-1V14h-2v-1l1-1a14 14 0 013 0h2v2a5 5 0 011-2h4a3 3 0 012 1l1 2a10 10 0 01-1 5l-1 3a5 5 0 01-2 1 7 7 0 01-3 0 4 4 0 01-1 0v3l1 1v1zm1-15h-2v9h1l2-1 1-4v-3l-2-1zm8 8l1-1 1-1 2 1v3h-3l-1-2zm17 0l-1 1a4 4 0 01-1 1 4 4 0 01-1 0h-4l-2-1a5 5 0 01-1-2l-1-3 2-5 5-1a8 8 0 014 1 13 13 0 01-1 1 11 11 0 010 2h-1l-1-3a1 1 0 00-1 0h-1l-1 1-1 2v4l1 1 1 1h2a4 4 0 002 0h1zm7-7l-1 1v6a5 5 0 012 1v1h-7v-1h1v-9h-1v-1l1-1a14 14 0 012 0h2v3a6 6 0 011-2l2-1h1v1l1 1v1h-4zm15 7v1l-1 1h-2a7 7 0 01-1 0h-3l-2-1a6 6 0 01-1-2l-1-3 2-5 4-1a7 7 0 013 0 4 4 0 013 3v3h-8l1 3 3 1h3zm-5-9l-1 1-1 1v2h4v-3l-2-1zm18 8v1h2v1a5 5 0 01-1 1 30 30 0 01-3 0h-1a4 4 0 010-1 24 24 0 010-1h-1a3 3 0 01-1 2 4 4 0 01-1 0h-3a4 4 0 01-1-1 3 3 0 01-1-1 3 3 0 010-1l1-2 1-1 2-1h4l-1-3-1-1h-2l-1 3h-1v-1a18 18 0 01-1-1 8 8 0 010-1l2-1h6l1 1 1 1v2a43 43 0 010 5zm-6 1h1a2 2 0 001 0v-1h1v-3h-2l-1 1a1 1 0 00-1 0v3h1zm8-9a6 6 0 012-1v-2l1-1a10 10 0 012 0v3h4v2h-4v6l1 2h2a5 5 0 001 0v1l-1 1a7 7 0 01-2 0 6 6 0 01-1 0l-2-1-1-2v-7h-2v-1zm17 11h-7v-1a4 4 0 011 0 9 9 0 011-1v-8h-2v-1a8 8 0 012-1 16 16 0 012 0h1v10a8 8 0 012 1v1zm-6-16l1-1 1-1 2 1 1 1-1 1-2 1-1-1-1-1zm7 10l1-3a6 6 0 011-2 6 6 0 012-1h5a5 5 0 014 3 8 8 0 010 6 5 5 0 01-2 2l-2 1h-5l-2-1a5 5 0 01-1-2 8 8 0 01-1-3zm4 0v2l1 2 2 1h1l1-1v-2a13 13 0 000-4v-2a2 2 0 00-1 0l-2-1h-1v1l-1 2v2zm25 6h-6v-1a8 8 0 011-1v-5l-1-3h-3l-1 2v6l1 1h1v1h-7v-1l2-1v-8h-2v-1l1-1a15 15 0 014 0v2l2-2h4a3 3 0 011 1l1 1v8l2 1v1z"/>
  <circle cx="14" cy="14" r="14" fill="#0056EC" opacity=".7"/>
  <circle cx="22" cy="21" r="14" fill="#C8DBFB" opacity=".7"/>
</svg>
